# xmcd
#
# Track frame offsets:
#	150
#	11612
#	33891
#	43126
#	58650
#	69117
#	82662
#	92824
#	102412
#	113579
#
# Disc length: 1713 seconds
#
# Revision: 1
# Processed by: cddbd v1.5.2PL0 Copyright (c) Steve Scherf et al.
# Submitted via: EZCDAudioConverter 5.1.1.1
#
DISCID=6f06af0a
DTITLE=JP Harris and Chance McCoy - Two Bad Hombres
DYEAR=2017
DGENRE=Country
TTITLE0=The Train That Carried My Girl From Town
TTITLE1=Way Over Yonder In The Minor Key
TTITLE2=Hogeyed Man
TTITLE3=Sugar Babe
TTITLE4=Stewball
TTITLE5=Poor Robin
TTITLE6=Down To The Willlow Garden
TTITLE7=Walk On By
TTITLE8=EU Blues
TTITLE9=Cigarettes, Whiskey, And Wild, Wild Women
EXTD=
EXTT0=
EXTT1=
EXTT2=
EXTT3=
EXTT4=
EXTT5=
EXTT6=
EXTT7=
EXTT8=
EXTT9=
PLAYORDER=
